# xmcd CD database file
#
# Track frame offsets:
#	150
#	12443
#	25906
#	38825
#	50961
#	61403
#	75001
#	87328
#	99533
#	112450
#	125423
#	137478
#
# Disc length: 1973 seconds
#
# Revision: 3
# Processed by: cddbd v1.5.2PL0 Copyright (c) Steve Scherf et al.
# Submitted via: CDex 1.51
#
DISCID=9e07b30c
DTITLE=Gaye, Marvin - 1964 How Sweet It Is To Be Loved By You
DYEAR=1965
DGENRE=Soul
TTITLE0=You're A Wonderful One
TTITLE1=How Sweet It Is (To Be Loved By You) 
TTITLE2=Try It Baby
TTITLE3=Baby Don't You Do It 
TTITLE4=Need Your Lovin' (Want You Back) 
TTITLE5=One Of These Days
TTITLE6=No Good Without You
TTITLE7=Stepping Closer To Your Heart
TTITLE8=Need Somebody
TTITLE9=Me And My Lonely Room
TTITLE10=Now That You've Won Me
TTITLE11=Forever
EXTD=YEAR: 1965
EXTT0=
EXTT1=
EXTT2=
EXTT3=
EXTT4=
EXTT5=
EXTT6=
EXTT7=
EXTT8=
EXTT9=
EXTT10=
EXTT11=
PLAYORDER=
